<svg width="125" height="30" viewBox="0 0 125 30" fill="none" xmlns="http://www.w3.org/2000/svg">
<g clip-path="url(#clip0_1_41)">
<path d="M37.7153 21.456H46.4606V18.8219H40.8235V8.8999H37.7153V21.456Z" fill="white"/>
<path d="M51.6419 19.6999C50.3951 19.6999 49.7453 18.6111 49.7453 16.978C49.7453 15.3448 50.3951 14.2384 51.6419 14.2384C52.8887 14.2384 53.5561 15.3448 53.5561 16.978C53.5561 18.6111 52.8887 19.6999 51.6419 19.6999ZM51.6595 21.737C54.557 21.737 56.4536 19.6823 56.4536 16.978C56.4536 14.2736 54.557 12.2189 51.6595 12.2189C48.7795 12.2189 46.8478 14.2736 46.8478 16.978C46.8478 19.6823 48.7795 21.737 51.6595 21.737Z" fill="white"/>
<path d="M61.469 24.5643C62.8037 24.5643 63.9803 24.2657 64.7705 23.5633C65.4905 22.9136 65.9646 21.9301 65.9646 20.5779V12.4648H63.2251V13.4306H63.19C62.6632 12.6755 61.8554 12.2014 60.6612 12.2014C58.431 12.2014 56.8856 14.0628 56.8856 16.697C56.8856 19.454 58.7646 20.9643 60.7842 20.9643C61.8729 20.9643 62.5578 20.5253 63.0846 19.9282H63.1549V20.8238C63.1549 21.9126 62.6456 22.5448 61.4339 22.5448C60.4856 22.5448 60.0115 22.1409 59.8534 21.6667H57.0788C57.3598 23.5457 58.9929 24.5643 61.469 24.5643ZM61.4515 18.8394C60.3803 18.8394 59.6778 17.9614 59.6778 16.6092C59.6778 15.2394 60.3803 14.3614 61.4515 14.3614C62.6456 14.3614 63.2778 15.3799 63.2778 16.5916C63.2778 17.856 62.6983 18.8394 61.4515 18.8394Z" fill="white"/>
<path d="M71.5976 19.6999C70.3508 19.6999 69.701 18.6111 69.701 16.978C69.701 15.3448 70.3508 14.2384 71.5976 14.2384C72.8444 14.2384 73.5115 15.3448 73.5115 16.978C73.5115 18.6111 72.8444 19.6999 71.5976 19.6999ZM71.6152 21.737C74.5124 21.737 76.409 19.6823 76.409 16.978C76.409 14.2736 74.5124 12.2189 71.6152 12.2189C68.7352 12.2189 66.8035 14.2736 66.8035 16.978C66.8035 19.6823 68.7352 21.737 71.6152 21.737Z" fill="white"/>
<path d="M77.2454 21.456H80.1078V12.4648H77.2454V21.456ZM77.2454 11.218H80.1078V8.8999H77.2454V11.218Z" fill="white"/>
<path d="M81.3495 24.4238H84.212V20.5253H84.2471C84.809 21.2804 85.6344 21.737 86.7934 21.737C89.1466 21.737 90.7095 19.8755 90.7095 16.9604C90.7095 14.256 89.252 12.2014 86.8637 12.2014C85.6344 12.2014 84.7564 12.7457 84.1417 13.5535H84.089V12.4648H81.3495V24.4238ZM86.0559 19.5243C84.8266 19.5243 84.1242 18.5233 84.1242 17.0657C84.1242 15.6082 84.7564 14.5018 86.0032 14.5018C87.2325 14.5018 87.812 15.5204 87.812 17.0657C87.812 18.5936 87.1446 19.5243 86.0559 19.5243Z" fill="white"/>
<path d="M95.3698 21.737C97.7229 21.737 99.4615 20.7184 99.4615 18.7516C99.4615 16.4511 97.6 16.0472 96.0195 15.7838C94.8781 15.5731 93.8595 15.4853 93.8595 14.8531C93.8595 14.2911 94.4039 14.0277 95.1063 14.0277C95.8966 14.0277 96.441 14.2736 96.5463 15.0814H99.1805C99.04 13.3077 97.6702 12.2014 95.1239 12.2014C92.999 12.2014 91.2429 13.1848 91.2429 15.0814C91.2429 17.1887 92.9112 17.6101 94.4742 17.8736C95.6683 18.0843 96.7571 18.1721 96.7571 18.9799C96.7571 19.5594 96.2127 19.8755 95.3522 19.8755C94.4039 19.8755 93.8068 19.4365 93.7015 18.5409H90.9971C91.0849 20.5253 92.7356 21.737 95.3698 21.737Z" fill="white"/>
<path d="M103.35 21.7194C104.597 21.7194 105.387 21.2277 106.037 20.3497H106.089V21.456H108.829V12.4648H105.966V17.4872C105.966 18.5584 105.369 19.296 104.386 19.296C103.473 19.296 103.034 18.7516 103.034 17.7682V12.4648H100.189V18.3653C100.189 20.3672 101.278 21.7194 103.35 21.7194Z" fill="white"/>
<path d="M110.074 21.456H112.937V16.416C112.937 15.3448 113.463 14.5896 114.359 14.5896C115.22 14.5896 115.623 15.1516 115.623 16.1175V21.456H118.486V16.416C118.486 15.3448 118.995 14.5896 119.908 14.5896C120.769 14.5896 121.173 15.1516 121.173 16.1175V21.456H124.035V15.6082C124.035 13.5887 123.017 12.2014 120.98 12.2014C119.82 12.2014 118.855 12.6931 118.152 13.7818H118.117C117.66 12.816 116.765 12.2014 115.588 12.2014C114.289 12.2014 113.428 12.816 112.866 13.7467H112.814V12.4648H110.074V21.456Z" fill="white"/>
<path fill-rule="evenodd" clip-rule="evenodd" d="M14.9035 29.5048C22.9858 29.5048 29.5376 22.9528 29.5376 14.8706C29.5376 6.78844 22.9858 0.236511 14.9035 0.236511C6.82128 0.236511 0.269356 6.78844 0.269356 14.8706C0.269356 22.9528 6.82128 29.5048 14.9035 29.5048ZM17.1623 11.5433C18.4097 10.2958 18.4097 8.27326 17.1623 7.02577C15.9148 5.7783 13.8923 5.7783 12.6448 7.02577C11.3973 8.27326 11.3973 10.2958 12.6448 11.5433L14.9035 13.802L17.1623 11.5433ZM18.2309 17.1294C19.4784 18.3769 21.5009 18.3769 22.7484 17.1294C23.9958 15.8819 23.9958 13.8594 22.7484 12.6119C21.5009 11.3645 19.4784 11.3645 18.2309 12.6119L15.9722 14.8707L18.2309 17.1294ZM17.1623 22.7156C18.4097 21.4681 18.4097 19.4456 17.1623 18.1981L14.9035 15.9394L12.6448 18.1981C11.3973 19.4456 11.3973 21.4681 12.6448 22.7156C13.8923 23.963 15.9148 23.963 17.1623 22.7156ZM7.0586 17.1294C5.81115 15.8819 5.81115 13.8594 7.0586 12.6119C8.30611 11.3645 10.3286 11.3645 11.5761 12.6119L13.8348 14.8707L11.5761 17.1294C10.3286 18.3769 8.30611 18.3769 7.0586 17.1294Z" fill="white"/>
</g>
<defs>
<clipPath id="clip0_1_41">
<rect width="124.39" height="30" fill="white" transform="translate(0.195129)"/>
</clipPath>
</defs>
</svg>
