<svg width="20" height="21" viewBox="0 0 20 21" fill="none" xmlns="http://www.w3.org/2000/svg">
<path d="M13.9168 16.3166H6.0835C5.7335 16.3166 5.34183 16.0416 5.22517 15.7082L1.77517 6.05822C1.2835 4.67489 1.8585 4.24989 3.04183 5.09989L6.29183 7.42489C6.8335 7.79989 7.45017 7.60822 7.6835 6.99989L9.15017 3.09155C9.61683 1.84155 10.3918 1.84155 10.8585 3.09155L12.3252 6.99989C12.5585 7.60822 13.1752 7.79989 13.7085 7.42489L16.7585 5.24989C18.0585 4.31655 18.6835 4.79155 18.1502 6.29989L14.7835 15.7249C14.6585 16.0416 14.2668 16.3166 13.9168 16.3166Z" stroke="#0A090B" stroke-width="2" stroke-linecap="round" stroke-linejoin="round"/>
<path d="M5.4165 18.8333H14.5832" stroke="#0A090B" stroke-width="2" stroke-linecap="round" stroke-linejoin="round"/>
<path d="M7.9165 12.1667H12.0832" stroke="#0A090B" stroke-width="2" stroke-linecap="round" stroke-linejoin="round"/>
</svg>
