<svg width="46" height="46" viewBox="0 0 46 46" fill="none" xmlns="http://www.w3.org/2000/svg">
<rect x="0.5" y="0.5" width="45" height="45" rx="22.5" stroke="#EEEEEE"/>
<path d="M24.6665 17.1667C24.6665 16.25 23.9165 15.5 22.9998 15.5C22.0832 15.5 21.3332 16.25 21.3332 17.1667C21.3332 18.0833 22.0832 18.8333 22.9998 18.8333C23.9165 18.8333 24.6665 18.0833 24.6665 17.1667Z" stroke="#0A090B" stroke-width="2"/>
<path d="M24.6665 28.8333C24.6665 27.9166 23.9165 27.1666 22.9998 27.1666C22.0832 27.1666 21.3332 27.9166 21.3332 28.8333C21.3332 29.75 22.0832 30.5 22.9998 30.5C23.9165 30.5 24.6665 29.75 24.6665 28.8333Z" stroke="#0A090B" stroke-width="2"/>
<path d="M24.6665 23C24.6665 22.0834 23.9165 21.3334 22.9998 21.3334C22.0832 21.3334 21.3332 22.0834 21.3332 23C21.3332 23.9167 22.0832 24.6667 22.9998 24.6667C23.9165 24.6667 24.6665 23.9167 24.6665 23Z" stroke="#0A090B" stroke-width="2"/>
</svg>
