<svg width="64" height="64" viewBox="0 0 64 64" fill="none" xmlns="http://www.w3.org/2000/svg">
<g clip-path="url(#clip0_3113_881)">
<rect width="64" height="64" rx="32" fill="#E4E2FF"/>
<rect x="-23.7076" y="46.4326" width="103.373" height="40.1751" fill="#ADA5FB"/>
<rect x="-23.7076" y="46.4326" width="103.373" height="1.28949" fill="#A39BF9"/>
<ellipse cx="23.6132" cy="61.2161" rx="31.5391" ry="2.78397" fill="url(#paint0_linear_3113_881)"/>
<path d="M24.869 15.3165L25.3215 15.3279C29.9917 15.5576 34.4338 19.3026 35.3713 23.8892L39.763 45.3746C40.7305 50.109 37.5977 53.9473 32.7654 53.9474H-1.84693C-6.67927 53.9474 -11.3813 50.109 -12.3493 45.3746L-16.741 23.8892L-16.8195 23.4481C-17.511 18.9185 -14.4248 15.3165 -9.74334 15.3165H24.869Z" fill="#522FFF" stroke="#522FFF" stroke-width="1.5"/>
<path d="M27.8392 11.356L28.2918 11.3675C32.9619 11.5971 37.404 15.3421 38.3416 19.9288L42.7333 41.4142C43.7008 46.1485 40.5679 49.9869 35.7356 49.9869H1.12334C-3.70899 49.9869 -8.41099 46.1486 -9.37898 41.4142L-13.7707 19.9288L-13.8492 19.4877C-14.5407 14.9581 -11.4546 11.356 -6.77306 11.356H27.8392Z" fill="#FEFEFB" stroke="#393939" stroke-width="1.5"/>
<path d="M-9.36341 16.9507C-9.77264 16.0622 -9.23874 15.167 -8.2996 15.167H30.2568C30.8748 15.167 31.482 15.5671 31.7513 16.1518C32.1605 17.0403 31.6266 17.9354 30.6875 17.9354H-7.86896C-8.48692 17.9354 -9.09413 17.5353 -9.36341 16.9507Z" fill="#EDE5FF"/>
<circle cx="0.738196" cy="0.738196" r="0.738196" transform="matrix(1 0 0.196116 0.980581 28.9065 15.8271)" fill="#28C840"/>
<circle cx="0.770142" cy="0.770142" r="0.770142" transform="matrix(1 0 0.196116 0.980581 26.2323 15.7959)" fill="#FEBC2E"/>
<circle cx="0.738255" cy="0.738255" r="0.738255" transform="matrix(1 0 0.196116 0.980581 23.6346 15.8271)" fill="#FE5F57"/>
<path d="M18.9724 24.0601C18.7872 22.9591 19.5466 22.0591 20.661 22.0591H30.5712C31.666 22.0591 32.6926 22.9288 32.8746 24.0105L33.4921 27.6802C33.6773 28.7813 32.9179 29.6813 31.8035 29.6813H21.8933C20.7986 29.6813 19.7719 28.8115 19.5899 27.7299L18.9724 24.0601Z" fill="#EDE5FF"/>
<path d="M20.708 33.9918C20.5286 32.8943 21.2874 32 22.3982 32H32.3085C33.407 32 34.436 32.8754 34.6135 33.9607L35.9601 42.1967C36.1395 43.2942 35.3807 44.1885 34.27 44.1885H24.3596C23.2612 44.1885 22.2321 43.3131 22.0547 42.2278L20.708 33.9918Z" fill="#EDE5FF"/>
<path d="M-4.89247 24.2215C-5.07072 23.1248 -4.31201 22.2317 -3.20205 22.2317H14.7886C15.8878 22.2317 16.9173 23.1082 17.0938 24.1943L20.0201 42.1986C20.1983 43.2954 19.4396 44.1885 18.3297 44.1885H0.33903C-0.760161 44.1885 -1.7897 43.312 -1.96622 42.2259L-4.89247 24.2215Z" fill="#EDE5FF"/>
<path d="M47.5236 38.5854C47.1728 38.2837 46.9562 37.855 46.9215 37.3937C46.8868 36.9323 47.0368 36.4761 47.3385 36.1253C47.6402 35.7745 48.0689 35.558 48.5302 35.5233C48.9916 35.4886 49.4478 35.6386 49.7986 35.9403L53.7663 39.3528C55.1693 40.5595 56.0356 42.2742 56.1744 44.1196C56.3132 45.965 55.7133 47.79 54.5065 49.193L53.1461 50.7748C52.3929 51.6502 51.4343 52.325 50.3561 52.7387C49.2772 53.1526 48.1124 53.2921 46.9662 53.1447C46.8284 53.1268 46.6907 53.1086 46.5531 53.09C45.8941 53.0018 43.3806 52.5197 39.0107 51.6436C38.5653 51.5543 38.1722 51.2947 37.9152 50.9201C37.6582 50.5455 36.4474 48.2324 37.1562 48.3988C37.238 47.9217 37.9551 48.7245 38.3131 48.3988C38.6711 48.073 39.1276 47.8762 39.6103 47.8396L42.0211 47.6583L34.5266 41.2125C34.1758 40.9108 33.3145 40.0598 33.2797 39.5984C33.245 39.1371 33.0795 37.9271 33.5302 38.0322C33.8319 37.6814 35.0719 38.1851 35.5332 38.1504C35.9946 38.1157 36.4508 38.2656 36.8016 38.5673L41.2101 42.359C41.0364 42.2096 40.8939 42.0275 40.7906 41.823C40.6873 41.6185 40.6253 41.3957 40.6081 41.1673C40.5909 40.9389 40.6189 40.7093 40.6904 40.4916C40.762 40.274 40.8757 40.0726 41.0251 39.8989C41.1744 39.7252 41.3566 39.5827 41.561 39.4794C41.7655 39.3761 41.9883 39.3141 42.2168 39.2969C42.4452 39.2797 42.6748 39.3077 42.8924 39.3792C43.11 39.4508 43.3114 39.5645 43.4851 39.7139L44.2674 40.3867C44.0191 40.0468 43.832 39.6753 43.7648 39.2805C43.7301 38.8191 43.8801 38.3629 44.1818 38.0121C44.4835 37.6614 44.9121 37.4448 45.3735 37.4101C45.8348 37.3754 46.2911 37.5254 46.6418 37.8271L47.5236 38.5854Z" fill="#CF5400"/>
<path d="M46.8515 37.1035C46.5007 36.8019 46.2842 36.3732 46.2495 35.9118C46.2148 35.4505 46.3648 34.9942 46.6664 34.6434C46.9681 34.2927 47.3968 34.0761 47.8581 34.0414C48.3195 34.0067 48.7757 34.1567 49.1265 34.4584L53.0942 37.8709C54.4973 39.0776 55.3635 40.7923 55.5023 42.6377C55.6412 44.4831 55.0412 46.3081 53.8345 47.7112L52.474 49.293C51.7209 50.1683 50.7622 50.8431 49.684 51.2568C48.6051 51.6707 47.4403 51.8103 46.2941 51.6628C46.1564 51.6449 46.0187 51.6267 45.881 51.6081C45.2221 51.52 42.7085 51.0378 38.3387 50.1617C37.8932 50.0724 37.5002 49.8128 37.2431 49.4382C36.9861 49.0636 36.8854 48.6035 36.9623 48.1557C37.0442 47.6787 37.283 47.2427 37.641 46.9169C37.999 46.5912 38.4556 46.3944 38.9382 46.3578L41.349 46.1764L33.8545 39.7306C33.5038 39.4289 33.2872 39.0002 33.2525 38.5389C33.2178 38.0775 33.3678 37.6213 33.6695 37.2705C33.9711 36.9198 34.3998 36.7032 34.8612 36.6685C35.3225 36.6338 35.7788 36.7838 36.1295 37.0855L40.5381 40.8771C40.3644 40.7278 40.2218 40.5456 40.1185 40.3412C40.0152 40.1367 39.9532 39.9139 39.936 39.6854C39.9189 39.457 39.9468 39.2274 40.0184 39.0098C40.0899 38.7922 40.2036 38.5907 40.353 38.4171C40.5024 38.2434 40.6845 38.1008 40.889 37.9975C41.0935 37.8942 41.3163 37.8322 41.5447 37.815C41.7731 37.7979 42.0027 37.8258 42.2204 37.8974C42.438 37.9689 42.6394 38.0826 42.8131 38.232L43.5953 38.9048C43.347 38.5649 43.16 38.1934 43.0928 37.7986C43.058 37.3373 43.208 36.881 43.5097 36.5303C43.8114 36.1795 44.2401 35.9629 44.7014 35.9282C45.1628 35.8935 45.619 36.0435 45.9698 36.3452L46.8515 37.1035Z" fill="#FDC448"/>
<path d="M36.5168 38.2169L34.9766 39.5991C34.0432 39.1527 33.5883 38.071 34.3583 37.4877C35.1284 36.9044 36.1182 37.7308 36.5168 38.2169Z" fill="white"/>
<path d="M41.3053 40.7677C41.1615 40.6385 40.9402 40.6504 40.811 40.7942C40.6819 40.938 40.6937 41.1593 40.8375 41.2884L41.3053 40.7677ZM41.0714 41.0281L40.8375 41.2884L44.0729 44.1948L44.3068 43.9344L44.5407 43.6741L41.3053 40.7677L41.0714 41.0281Z" fill="#CF5400"/>
<path d="M44.2154 38.9418C44.0716 38.8126 43.8503 38.8245 43.7211 38.9683C43.592 39.1121 43.6038 39.3333 43.7476 39.4625L44.2154 38.9418ZM43.9815 39.2021L43.7476 39.4625L46.983 42.3689L47.2169 42.1085L47.4508 41.8481L44.2154 38.9418L43.9815 39.2021Z" fill="#CF5400"/>
<path d="M47.4515 37.0273C47.308 36.8978 47.0867 36.9091 46.9571 37.0525C46.8276 37.196 46.8389 37.4173 46.9824 37.5469L47.4515 37.0273ZM47.2169 37.2871L46.9824 37.5469L49.9033 40.1843L50.1378 39.9246L50.3724 39.6648L47.4515 37.0273L47.2169 37.2871Z" fill="#CF5400"/>
<path d="M28.4268 37.8993C29.2421 37.8993 29.746 37.2573 29.5524 36.4654C29.3589 35.6735 28.541 35.0315 27.7258 35.0315C26.9106 35.0315 26.4066 35.6735 26.6002 36.4654C26.7938 37.2573 27.6116 37.8993 28.4268 37.8993Z" fill="#4B00FF"/>
<path d="M29.1384 38.7186C28.7921 38.6876 28.4407 38.6876 28.1096 38.7186C27.0603 38.8179 26.3994 39.6435 26.5521 40.6863C26.567 40.7733 26.6138 40.8602 26.6928 40.9222C26.7719 40.9843 26.8656 41.0278 26.9551 41.0278H31.4282C31.5177 41.0278 31.598 40.9905 31.6404 40.9284C31.6827 40.8664 31.6934 40.7795 31.6658 40.6926C31.3007 39.6435 30.2426 38.8179 29.1384 38.7186Z" fill="#4B00FF"/>
<path d="M22.9198 24.9854L23.1585 26.1791" stroke="#AF90F9" stroke-width="0.798369" stroke-linecap="round" stroke-linejoin="round"/>
<path d="M24.4369 24.5874L24.8343 26.5743" stroke="#AF90F9" stroke-width="0.798369" stroke-linecap="round" stroke-linejoin="round"/>
<path d="M25.954 24.1895L26.5106 26.9722" stroke="#AF90F9" stroke-width="0.798369" stroke-linecap="round" stroke-linejoin="round"/>
<path d="M27.6304 24.5874L28.0277 26.5743" stroke="#AF90F9" stroke-width="0.798369" stroke-linecap="round" stroke-linejoin="round"/>
<path d="M29.3067 24.9854L29.5455 26.1791" stroke="#AF90F9" stroke-width="0.798369" stroke-linecap="round" stroke-linejoin="round"/>
<path d="M8.75069 40.0785C5.6789 40.0785 2.68386 37.6282 2.08024 34.61L1.85552 33.4865C1.8089 33.2534 1.96688 33.0681 2.19849 33.0681C2.43009 33.0681 2.66337 33.2594 2.7088 33.4865L2.93351 34.61C3.4439 37.162 5.97357 39.2358 8.57606 39.2358C11.1785 39.2358 12.8787 37.162 12.3683 34.61L12.1436 33.4865C12.097 33.2534 12.2549 33.0681 12.4865 33.0681C12.7181 33.0681 12.9514 33.2594 12.9968 33.4865L13.2216 34.61C13.8374 37.6282 11.8225 40.0785 8.75069 40.0785Z" fill="#CCC8FF"/>
<path d="M6.36854 28.1675C4.32068 28.1675 2.97821 29.805 3.37982 31.8131L3.94042 34.6161C4.34203 36.6242 6.33952 38.2617 8.38738 38.2617C10.4352 38.2617 11.7777 36.6242 11.3761 34.6161L10.8155 31.8131C10.4139 29.805 8.41639 28.1675 6.36854 28.1675ZM8.72396 33.3013C8.71357 33.4626 8.58272 33.5702 8.41816 33.5702C8.38768 33.5702 8.34992 33.5642 8.31825 33.5582C7.66311 33.3909 7.00487 33.3909 6.41666 33.5582C6.22629 33.612 6.00245 33.4985 5.90816 33.3013C5.81505 33.11 5.89021 32.9068 6.08059 32.853C6.78961 32.6498 7.58194 32.6498 8.37224 32.853C8.58412 32.9068 8.73937 33.104 8.72396 33.3013ZM8.91092 31.6458C8.88595 31.7952 8.7637 31.8848 8.61133 31.8848C8.56867 31.8848 8.52481 31.8789 8.47856 31.8609C7.47912 31.5263 6.45519 31.5263 5.58962 31.8609C5.40893 31.9327 5.17648 31.837 5.06509 31.6458C4.961 31.4605 5.01668 31.2513 5.19737 31.1796C6.21674 30.7911 7.42352 30.7911 8.59218 31.1796C8.80156 31.2513 8.94091 31.4605 8.91092 31.6458Z" fill="#CCC8FF"/>
</g>
<defs>
<linearGradient id="paint0_linear_3113_881" x1="-7.92596" y1="61.2161" x2="55.1523" y2="61.2161" gradientUnits="userSpaceOnUse">
<stop stop-color="#8C73FF" stop-opacity="0"/>
<stop offset="1" stop-color="#8B73FD"/>
</linearGradient>
<clipPath id="clip0_3113_881">
<rect width="64" height="64" rx="32" fill="white"/>
</clipPath>
</defs>
</svg>
