<svg width="64" height="64" viewBox="0 0 64 64" fill="none" xmlns="http://www.w3.org/2000/svg">
<g clip-path="url(#clip0_3113_938)">
<rect width="64" height="64" rx="32" fill="#E4E2FF"/>
<rect x="-23.7076" y="46.4326" width="103.373" height="40.1751" fill="#ADA5FB"/>
<rect x="-23.7076" y="46.4326" width="103.373" height="1.28949" fill="#A39BF9"/>
<ellipse cx="23.6132" cy="61.2161" rx="31.5391" ry="2.78397" fill="url(#paint0_linear_3113_938)"/>
<path d="M28.1867 13.9988C33.0191 13.999 37.7213 17.8371 38.689 22.5716L43.1567 44.4282C44.1244 49.1627 40.9913 53.0008 36.159 53.001H21.0399C16.2074 53.001 11.5053 49.1628 10.5375 44.4282L6.0699 22.5716C5.10212 17.837 8.23508 13.9988 13.0676 13.9988H28.1867Z" fill="#522FFF" stroke="#522FFF" stroke-width="1.5"/>
<path d="M30.1867 10.9988C35.0191 10.999 39.7213 14.8371 40.689 19.5716L45.1567 41.4282C46.1244 46.1627 42.9913 50.0008 38.159 50.001H23.0399C18.2074 50.001 13.5053 46.1628 12.5375 41.4282L8.0699 19.5716C7.10212 14.837 10.2351 10.9988 15.0676 10.9988H30.1867Z" fill="#FEFEFB" stroke="#393939" stroke-width="1.5"/>
<path d="M17.4854 11.7336H29.2979L29.6428 13.458C29.8594 14.5412 29.1396 15.4192 28.0351 15.4192H20.2226C19.118 15.4192 18.0469 14.5412 17.8303 13.458L17.4854 11.7336Z" fill="#393939"/>
<path d="M12.0603 19.3053C11.8942 18.3714 12.5286 17.6143 13.4772 17.6143H23.1822C24.1308 17.6143 25.0344 18.3714 25.2004 19.3053C25.3665 20.2393 24.7321 20.9964 23.7835 20.9964H14.0785C13.1299 20.9964 12.2263 20.2393 12.0603 19.3053Z" fill="#EDE5FF"/>
<path d="M18.0181 41.6034C17.852 40.6695 18.4864 39.9124 19.435 39.9124H23.7835C24.7321 39.9124 25.6357 40.6695 25.8017 41.6034C25.9677 42.5374 25.3334 43.2945 24.3848 43.2945H20.0363C19.0877 43.2945 18.1841 42.5374 18.0181 41.6034Z" fill="#4B00FF"/>
<path d="M26.403 41.6034C26.237 40.6695 26.8713 39.9124 27.8199 39.9124H32.1684C33.117 39.9124 34.0206 40.6695 34.1866 41.6034C34.3527 42.5374 33.7183 43.2945 32.7697 43.2945H28.4212C27.4726 43.2945 26.569 42.5374 26.403 41.6034Z" fill="#EDE5FF"/>
<path d="M34.7879 41.6034C34.6219 40.6695 35.2563 39.9124 36.2049 39.9124H39.3292C40.2778 39.9124 41.1813 40.6695 41.3474 41.6034C41.5134 42.5374 40.879 43.2945 39.9304 43.2945H36.8061C35.8575 43.2945 34.9539 42.5374 34.7879 41.6034Z" fill="#EDE5FF"/>
<path d="M14.0147 27.998C13.6624 26.3296 14.7752 24.9473 16.4707 24.9473H34.6076C36.2261 24.9473 37.7775 26.2113 38.1139 27.8039L39.2116 33.002C39.5639 34.6704 38.4511 36.0528 36.7556 36.0528H18.6187C17.0002 36.0528 15.4488 34.7888 15.1124 33.1962L14.0147 27.998Z" fill="#EDE5FF"/>
<path d="M21.2239 27.0815H18.3025C17.0336 27.0815 16.4255 27.8233 16.6743 29.0676L17.2466 31.9288C17.4961 33.1765 18.401 33.9183 19.6699 33.9183H22.5877C23.8567 33.9183 24.4648 33.1765 24.2159 31.9322L23.643 29.0676C23.3976 27.8233 22.4928 27.0815 21.2239 27.0815ZM19.8156 30.9341C19.6483 31.2827 19.3773 31.5665 19.0314 31.7545C19 31.7716 18.9602 31.7818 18.9219 31.7818C18.8243 31.7818 18.7234 31.7305 18.6603 31.6417C18.5687 31.5152 18.5903 31.3613 18.7098 31.2964C18.9836 31.1494 19.1965 30.9238 19.3266 30.6503C19.3708 30.558 19.3476 30.4418 19.2664 30.3495C19.0235 30.076 18.7204 29.8504 18.3912 29.7034C18.2464 29.6419 18.1633 29.4881 18.2036 29.3582C18.241 29.2317 18.3877 29.1804 18.5296 29.2454C18.9507 29.4334 19.3351 29.7171 19.6419 30.0658C19.8758 30.329 19.9442 30.6708 19.8156 30.9341ZM22.4463 31.7818H21.0519C20.9089 31.7818 20.7672 31.6656 20.7391 31.5254C20.7111 31.3853 20.8064 31.2691 20.9493 31.2691H22.3437C22.4867 31.2691 22.6284 31.3853 22.6565 31.5254C22.6845 31.6656 22.5892 31.7818 22.4463 31.7818Z" fill="#AF90F9"/>
<path d="M34.1843 31.4256C34.7055 31.4256 35.0452 31.0112 34.943 30.5001C34.8408 29.989 34.3354 29.5747 33.8141 29.5747C33.2929 29.5747 32.9532 29.989 33.0554 30.5001C33.1577 31.0112 33.6631 31.4256 34.1843 31.4256Z" fill="#CCC8FF"/>
<path d="M33.5262 28.1351C34.0474 28.1351 34.3871 27.7207 34.2849 27.2096C34.1827 26.6985 33.6773 26.2842 33.156 26.2842C32.6348 26.2842 32.2951 26.6985 32.3974 27.2096C32.4996 27.7207 33.005 28.1351 33.5262 28.1351Z" fill="#CCC8FF"/>
<path d="M34.8424 34.7159C35.3636 34.7159 35.7033 34.3015 35.6011 33.7904C35.4989 33.2793 34.9935 32.865 34.4722 32.865C33.951 32.865 33.6113 33.2793 33.7136 33.7904C33.8158 34.3015 34.3212 34.7159 34.8424 34.7159Z" fill="#CCC8FF"/>
<path d="M27.4731 31.4256C27.9943 31.4256 28.334 31.0112 28.2318 30.5001C28.1295 29.989 27.6241 29.5747 27.1029 29.5747C26.5817 29.5747 26.242 29.989 26.3442 30.5001C26.4465 31.0112 26.9519 31.4256 27.4731 31.4256Z" fill="#CCC8FF"/>
<path d="M33.6415 30.8085C33.8135 30.8085 33.9281 30.6687 33.8944 30.5C33.8606 30.3314 33.6901 30.1916 33.5181 30.1916H30.4771L30.1275 28.4435C29.9975 27.7937 30.2234 27.5181 30.8861 27.5181H32.9834C33.1554 27.5181 33.27 27.3782 33.2363 27.2096C33.2026 27.041 33.032 26.9011 32.86 26.9011H30.7627C29.7477 26.9011 29.2992 27.4482 29.4983 28.4435L29.8479 30.1916H27.6458C27.4738 30.1916 27.3592 30.3314 27.3929 30.5C27.4266 30.6687 27.5972 30.8085 27.7692 30.8085H29.9713L30.3209 32.5566C30.52 33.5519 31.1872 34.099 32.2023 34.099H34.2996C34.4715 34.099 34.5862 33.9591 34.5525 33.7905C34.5187 33.6219 34.3481 33.482 34.1762 33.482H32.0789C31.4162 33.482 31.08 33.2064 30.9501 32.5566L30.6005 30.8085H33.6415Z" fill="#CCC8FF"/>
<path d="M31.8178 19.3053C31.6518 18.3714 32.2862 17.6143 33.2348 17.6143H33.9398C34.8884 17.6143 35.7919 18.3714 35.958 19.3053C36.124 20.2393 35.4896 20.9964 34.541 20.9964H33.836C32.8874 20.9964 31.9838 20.2393 31.8178 19.3053Z" fill="#EDE5FF"/>
<path d="M55.0564 19.2831C54.2715 23.2077 49.9754 26.1453 45.4608 25.8443C44.6209 25.7883 43.8327 25.6242 43.1109 25.3689C42.364 25.1046 38.8646 26.1583 38.2767 25.7173C38.0158 25.5216 37.3804 24.9421 37.09 24.2916C37.4036 23.5949 40.0358 23.3146 39.8856 23.1255C38.8114 21.7737 38.3385 20.0386 38.7075 18.1932C39.4925 14.2685 43.0743 10.0904 47.5889 10.3914C52.1035 10.6923 55.8414 15.3585 55.0564 19.2831Z" fill="#CF5400"/>
<path d="M53.9227 17.9559C53.1377 21.8805 48.8416 24.8181 44.327 24.5171C43.4871 24.4611 42.6989 24.297 41.9771 24.0416C41.2302 23.7774 37.7308 24.831 37.1429 24.39C36.6811 24.0437 39.0972 22.233 38.7518 21.7982C37.6777 20.4465 37.2047 18.7114 37.5738 16.8659C38.3587 12.9413 42.6548 10.0038 47.1694 10.3047C51.6841 10.6057 54.7076 14.0312 53.9227 17.9559Z" fill="#F67702"/>
<path d="M48.3184 15.1246C48.3897 15.1449 48.4541 15.1792 48.5084 15.2242L48.5818 15.2985C48.6027 15.3255 48.6201 15.3551 48.6345 15.3861L48.6355 15.3863L49.8682 17.9952L49.9032 18.0968C49.9479 18.3039 49.85 18.5298 49.6554 18.6684L49.5496 18.7299L46.5741 20.1403C46.5386 20.1573 46.5019 20.1709 46.4644 20.1814L46.3495 20.203C46.2724 20.2104 46.1961 20.2035 46.1249 20.1831C46.0892 20.1729 46.055 20.1596 46.0231 20.1429L45.9345 20.0844C45.8801 20.0394 45.8369 19.984 45.8079 19.9213L45.8082 19.9204C45.7937 19.8899 45.7821 19.8582 45.7746 19.8252L45.7627 19.7212C45.7625 19.6506 45.7778 19.5793 45.8073 19.5113C45.8368 19.4434 45.8798 19.38 45.9345 19.3251L46.024 19.25C46.0559 19.2277 46.0898 19.208 46.1254 19.1914L48.5644 18.0375L47.5536 15.8979L47.5532 15.8988C47.5383 15.8678 47.527 15.8351 47.5194 15.8015L47.5075 15.6974C47.5073 15.6269 47.5226 15.5556 47.5521 15.4876C47.5815 15.4196 47.6246 15.3563 47.6792 15.3014L47.7688 15.2263C47.8007 15.204 47.8346 15.1843 47.8702 15.1677C47.9409 15.1339 48.0167 15.113 48.0934 15.1056L48.2077 15.105C48.2454 15.1082 48.2827 15.1143 48.3184 15.1246ZM45.2866 14.1022C45.3578 14.1225 45.4226 14.1559 45.477 14.2009L45.5499 14.2761C45.571 14.3033 45.5891 14.3327 45.6036 14.3639L45.6027 14.3637C45.6325 14.4258 45.6484 14.4938 45.6487 14.5641L45.6374 14.6706C45.63 14.7056 45.6198 14.7404 45.6051 14.7742C45.5904 14.8082 45.5713 14.8411 45.55 14.8722L45.4766 14.961C45.4222 15.0155 45.3574 15.0598 45.2864 15.093L45.287 15.0941L42.8471 16.2478L43.8583 18.3865L43.8927 18.4849C43.9002 18.5184 43.9038 18.5529 43.904 18.5879C43.9042 18.6583 43.8897 18.73 43.8603 18.7979C43.8309 18.8658 43.7868 18.929 43.7322 18.9839C43.6778 19.0386 43.6128 19.0834 43.5417 19.1167L43.5422 19.1179C43.2787 19.2425 42.9854 19.1834 42.8327 18.9897L42.776 18.8989L41.5453 16.2856L41.5449 16.2865C41.5301 16.2553 41.519 16.2221 41.5115 16.1884L41.5 16.0834C41.5 16.0126 41.5154 15.9408 41.5449 15.8727L41.5992 15.7744C41.6204 15.7433 41.6449 15.7139 41.6721 15.6865L41.762 15.6105C41.794 15.588 41.8282 15.5678 41.8638 15.5509L44.8374 14.145L44.9471 14.1038C44.9848 14.0933 45.0233 14.086 45.062 14.0823L45.1762 14.0817C45.2139 14.085 45.2509 14.092 45.2866 14.1022Z" fill="white" stroke="white" stroke-width="0.18189"/>
</g>
<defs>
<linearGradient id="paint0_linear_3113_938" x1="-7.92596" y1="61.2161" x2="55.1523" y2="61.2161" gradientUnits="userSpaceOnUse">
<stop stop-color="#8C73FF" stop-opacity="0"/>
<stop offset="1" stop-color="#8B73FD"/>
</linearGradient>
<clipPath id="clip0_3113_938">
<rect width="64" height="64" rx="32" fill="white"/>
</clipPath>
</defs>
</svg>
