<svg width="46" height="46" viewBox="0 0 46 46" fill="none" xmlns="http://www.w3.org/2000/svg">
<rect x="0.5" y="0.5" width="45" height="45" rx="22.5" stroke="#EEEEEE"/>
<path d="M23.0167 15.425C20.2583 15.425 18.0167 17.6667 18.0167 20.425V22.8334C18.0167 23.3417 17.8 24.1167 17.5417 24.55L16.5833 26.1417C15.9917 27.125 16.4 28.2167 17.4833 28.5834C21.075 29.7834 24.95 29.7834 28.5417 28.5834C29.55 28.2501 29.9917 27.0584 29.4417 26.1417L28.4833 24.55C28.2333 24.1167 28.0167 23.3417 28.0167 22.8334V20.425C28.0167 17.675 25.7667 15.425 23.0167 15.425Z" stroke="#0A090B" stroke-width="2" stroke-miterlimit="10" stroke-linecap="round"/>
<path d="M24.5583 15.6667C24.3 15.5917 24.0333 15.5334 23.7583 15.5C22.9583 15.4 22.1917 15.4584 21.475 15.6667C21.7167 15.05 22.3167 14.6167 23.0167 14.6167C23.7167 14.6167 24.3167 15.05 24.5583 15.6667Z" stroke="#0A090B" stroke-width="2" stroke-miterlimit="10" stroke-linecap="round" stroke-linejoin="round"/>
<path d="M25.5167 28.8833C25.5167 30.2583 24.3917 31.3833 23.0167 31.3833C22.3333 31.3833 21.7 31.1 21.25 30.65C20.8 30.2 20.5167 29.5666 20.5167 28.8833" stroke="#0A090B" stroke-width="2" stroke-miterlimit="10"/>
</svg>
