<svg width="46" height="46" viewBox="0 0 46 46" fill="none" xmlns="http://www.w3.org/2000/svg">
<rect x="0.5" y="0.5" width="45" height="45" rx="22.5" stroke="#EEEEEE"/>
<path d="M31.3333 18V20.0166C31.3333 21.3333 30.5 22.1666 29.1833 22.1666H26.3333V16.3416C26.3333 15.4166 27.0917 14.6666 28.0167 14.6666C28.925 14.675 29.7584 15.0416 30.3584 15.6416C30.9584 16.25 31.3333 17.0833 31.3333 18Z" stroke="#0A090B" stroke-width="2" stroke-miterlimit="10" stroke-linecap="round" stroke-linejoin="round"/>
<path d="M14.6667 18.8333V30.5C14.6667 31.1916 15.45 31.5833 16 31.1666L17.425 30.1C17.7583 29.85 18.225 29.8833 18.525 30.1833L19.9083 31.575C20.2333 31.9 20.7667 31.9 21.0917 31.575L22.4917 30.175C22.7833 29.8833 23.25 29.85 23.575 30.1L25 31.1666C25.55 31.575 26.3333 31.1833 26.3333 30.5V16.3333C26.3333 15.4166 27.0833 14.6666 28 14.6666H18.8333H18C15.5 14.6666 14.6667 16.1583 14.6667 18V18.8333Z" stroke="#0A090B" stroke-width="2" stroke-miterlimit="10" stroke-linecap="round" stroke-linejoin="round"/>
<path d="M18 20.5H23" stroke="#0A090B" stroke-width="2" stroke-linecap="round" stroke-linejoin="round"/>
<path d="M18.625 23.8334H22.375" stroke="#0A090B" stroke-width="2" stroke-linecap="round" stroke-linejoin="round"/>
</svg>
