<svg width="52" height="52" viewBox="0 0 52 52" fill="none" xmlns="http://www.w3.org/2000/svg">
<rect width="52" height="52" rx="26" fill="#FD445E"/>
<path d="M33.5 20.9833C30.725 20.7083 27.9333 20.5667 25.15 20.5667C23.5 20.5667 21.85 20.65 20.2 20.8167L18.5 20.9833" stroke="white" stroke-width="2" stroke-linecap="round" stroke-linejoin="round"/>
<path d="M23.0835 20.1417L23.2668 19.0501C23.4002 18.2584 23.5002 17.6667 24.9085 17.6667H27.0918C28.5002 17.6667 28.6085 18.2917 28.7335 19.0584L28.9168 20.1417" stroke="white" stroke-width="2" stroke-linecap="round" stroke-linejoin="round"/>
<path d="M31.7082 23.6167L31.1665 32.0084C31.0748 33.3167 30.9998 34.3334 28.6748 34.3334H23.3248C20.9998 34.3334 20.9248 33.3167 20.8332 32.0084L20.2915 23.6167" stroke="white" stroke-width="2" stroke-linecap="round" stroke-linejoin="round"/>
<path d="M24.6084 29.75H27.3834" stroke="white" stroke-width="2" stroke-linecap="round" stroke-linejoin="round"/>
<path d="M23.9165 26.4167H28.0832" stroke="white" stroke-width="2" stroke-linecap="round" stroke-linejoin="round"/>
</svg>
