<svg width="20" height="21" viewBox="0 0 20 21" fill="none" xmlns="http://www.w3.org/2000/svg">
<g id="vuesax/linear/trash">
<g id="trash">
<path id="Vector" d="M17.5 5.48332C14.725 5.20832 11.9333 5.06665 9.15 5.06665C7.5 5.06665 5.85 5.14998 4.2 5.31665L2.5 5.48332" stroke="#FD445E" stroke-width="2" stroke-linecap="round" stroke-linejoin="round"/>
<path id="Vector_2" d="M7.0835 4.64175L7.26683 3.55008C7.40016 2.75841 7.50016 2.16675 8.9085 2.16675H11.0918C12.5002 2.16675 12.6085 2.79175 12.7335 3.55841L12.9168 4.64175" stroke="#FD445E" stroke-width="2" stroke-linecap="round" stroke-linejoin="round"/>
<path id="Vector_3" d="M15.7082 8.1167L15.1665 16.5084C15.0748 17.8167 14.9998 18.8334 12.6748 18.8334H7.32484C4.99984 18.8334 4.92484 17.8167 4.83317 16.5084L4.2915 8.1167" stroke="#FD445E" stroke-width="2" stroke-linecap="round" stroke-linejoin="round"/>
<path id="Vector_4" d="M8.6084 14.25H11.3834" stroke="#FD445E" stroke-width="2" stroke-linecap="round" stroke-linejoin="round"/>
<path id="Vector_5" d="M7.9165 10.9167H12.0832" stroke="#FD445E" stroke-width="2" stroke-linecap="round" stroke-linejoin="round"/>
</g>
</g>
</svg>
